#!OML:ASF E:\motion texture\Top Level 1\Subject 1\Session 1\male.ASF
:FULLY-SPECIFIED
:DEGREES
604
root -27.2891 17.881 4.81912 172.784 -84.6833 -171.417
lowerback -0.755083 -0.327253 0.847207
upperback -3.63746 -0.447869 1.74533
thorax -3.30569 -0.249067 1.33138
lowerneck -17.4279 5.23904 -1.22937
upperneck 7.1928 8.96449 -17.4884
head 5.91166 2.789 -4.47145
rclavicle 1.55052e-014 7.95139e-015
rhumerus -17.7175 19.9049 -74.1406
rradius 56.9589
rwrist 5.93983
rhand -8.89128 -32.6372
rfingers 7.12502
rthumb 17.0511 -61.9089
lclavicle 1.55052e-014 7.95139e-015
lhumerus 28.8186 -42.6635 32.9385
lradius 68.4415
lwrist -3.3994
lhand -7.42344 25.5702
lfingers 7.12502
lthumb 18.4635 54.714
rfemur -22.298 -5.64398 19.1593
rtibia 61.6047
rfoot 2.50232 -16.9473
rtoes 9.26178
lfemur -9.7494 -2.06717 -20.5035
ltibia 21.4663
lfoot -9.45305 2.94784
ltoes -0.486903
605
root -27.4167 17.8892 4.81207 174.806 -84.7639 -173.428
lowerback -0.709504 -0.357982 0.592105
upperback -3.6221 -0.490409 1.71209
thorax -3.3129 -0.262438 1.44127
lowerneck -17.417 5.31067 -1.30501
upperneck 7.19626 9.09392 -17.6897
head 5.93263 2.82759 -4.51024
rclavicle -9.0944e-015 -2.94201e-014
rhumerus -18.8634 20.4142 -74.9099
rradius 55.7042
rwrist 5.96835
rhand -7.97689 -32.0936
rfingers 7.12502
rthumb 17.9311 -61.2869
lclavicle -9.0944e-015 -2.94201e-014
lhumerus 30.649 -39.7703 31.1318
lradius 69.4902
lwrist -1.99057
lhand -8.06246 26.4533
lfingers 7.12502
lthumb 17.8487 55.6542
rfemur -23.099 -5.76831 18.9857
rtibia 61.1151
rfoot 2.09352 -17.1872
rtoes 9.53771
lfemur -9.12064 -2.07286 -20.7783
ltibia 21.1595
lfoot -9.71174 2.92981
ltoes -0.633463
606
root -27.5437 17.897 4.80434 176.852 -84.8316 -175.445
lowerback -0.669098 -0.385514 0.345454
upperback -3.60963 -0.529032 1.67947
thorax -3.32014 -0.274189 1.54704
lowerneck -17.4034 5.37618 -1.38429
upperneck 7.19043 9.21258 -17.8775
head 5.94842 2.86294 -4.54527
rclavicle 1.49089e-015 -1.11319e-014
rhumerus -19.999 20.8368 -75.7099
rradius 54.4081
rwrist 6.00476
rhand -7.12978 -31.5627
rfingers 7.12502
rthumb 18.746 -60.6795
lclavicle 1.49089e-015 -1.11319e-014
lhumerus 32.2631 -36.7563 29.685
lradius 70.4202
lwrist -0.60697
lhand -8.68887 27.3146
lfingers 7.12502
lthumb 17.2459 56.5694
rfemur -23.8725 -5.86946 18.8212
rtibia 60.4859
rfoot 1.65551 -17.3943
rtoes 9.7613
lfemur -8.51008 -2.06979 -21.0406
ltibia 20.8452
lfoot -9.95782 2.91308
ltoes -0.794522
607
root -27.67 17.9045 4.79592 178.898 -84.8878 -177.445
lowerback -0.631608 -0.41017 0.108745
upperback -3.60119 -0.564071 1.6478
thorax -3.32987 -0.284511 1.64823
lowerneck -17.3885 5.43558 -1.4699
upperneck 7.17955 9.3215 -18.0482
head 5.96025 2.89545 -4.57482
rclavicle 9.0944e-015 -8.34896e-015
rhumerus -21.1229 21.1651 -76.5341
rradius 53.0747
rwrist 6.04721
rhand -6.35057 -31.0535
rfingers 7.12502
rthumb 19.4953 -60.0961
lclavicle 9.0944e-015 -8.34896e-015
lhumerus 33.7023 -33.6489 28.5686
lradius 71.23
lwrist 0.734765
lhand -9.30472 28.1488
lfingers 7.12502
lthumb 16.6531 57.4544
rfemur -24.6158 -5.9477 18.6661
rtibia 59.7198
rfoot 1.19608 -17.5639
rtoes 9.96377
lfemur -7.91877 -2.05903 -21.2891
ltibia 20.5265
lfoot -10.1929 2.89726
ltoes -0.966152
608
root -27.7959 17.9115 4.78682 180.933 -84.9316 -179.416
lowerback -0.599176 -0.431729 -0.11789
upperback -3.59601 -0.595221 1.61713
thorax -3.34015 -0.293243 1.74474
lowerneck -17.3733 5.48944 -1.55622
upperneck 7.161 9.42044 -18.2081
head 5.96804 2.92482 -4.60184
rclavicle -2.08724e-015 9.93923e-015
rhumerus -22.2278 21.3917 -77.374
rradius 51.7038
rwrist 6.0972
rhand -5.64873 -30.5738
rfingers 7.12502
rthumb 20.17 -59.5467
lclavicle -2.08724e-015 9.93923e-015
lhumerus 35.0077 -30.4719 27.7529
lradius 71.9228
lwrist 2.02056
lhand -9.91268 28.953
lfingers 7.12502
lthumb 16.0677 58.3068
rfemur -25.3281 -6.0011 18.5189
rtibia 58.8203
rfoot 0.724009 -17.6918
rtoes 10.11
lfemur -7.34796 -2.03936 -21.5241
ltibia 20.2061
lfoot -10.418 2.88251
ltoes -1.15359
609
root -27.9212 17.918 4.77702 182.949 -84.9652 -181.351
lowerback -0.570731 -0.450938 -0.334923
upperback -3.59473 -0.623435 1.58756
thorax -3.35228 -0.300827 1.83698
lowerneck -17.3562 5.53825 -1.64522
upperneck 7.13492 9.51013 -18.3545
head 5.97135 2.95168 -4.62507
rclavicle -1.25731e-014 -5.1684e-015
rhumerus -23.31 21.5113 -78.2213
rradius 50.2998
rwrist 6.15168
rhand -5.02442 -30.1287
rfingers 7.12502
rthumb 20.77 -59.0371
lclavicle -1.25731e-014 -5.1684e-015
lhumerus 36.2138 -27.248 27.2136
lradius 72.503
lwrist 3.23817
lhand -10.5155 29.7226
lfingers 7.12502
lthumb 15.4872 59.1223
rfemur -26.0086 -6.03112 18.3782
rtibia 57.7932
rfoot 0.255282 -17.7707
rtoes 10.2297
lfemur -6.79872 -2.01253 -21.7462
ltibia 19.8864
lfoot -10.6337 2.86851
ltoes -1.35551
610
root -28.0462 17.9241 4.76654 184.938 -84.9888 -183.243
lowerback -0.54817 -0.468019 -0.541569
upperback -3.5964 -0.64897 1.55885
thorax -3.36422 -0.307417 1.92423
lowerneck -17.337 5.58159 -1.7367
upperneck 7.10144 9.58997 -18.4883
head 5.97015 2.97569 -4.64494
rclavicle -1.09332e-015 6.75868e-015
rhumerus -24.3614 21.5183 -79.0669
rradius 48.8627
rwrist 6.20969
rhand -4.47995 -29.7217
rfingers 7.12502
rthumb 21.293 -58.5719
lclavicle -1.09332e-015 6.75868e-015
lhumerus 37.3531 -23.9969 26.9285
lradius 72.977
lwrist 4.37634
lhand -11.1126 30.4544
lfingers 7.12502
lthumb 14.912 59.8976
rfemur -26.6546 -6.0376 18.2419
rtibia 56.6435
rfoot -0.19614 -17.8005
rtoes 10.3226
lfemur -6.27 -1.97867 -21.9563
ltibia 19.569
lfoot -10.8411 2.85541
ltoes -1.56996
